<svg width="200" height="200" viewBox="0 0 200 200" fill="none" xmlns="http://www.w3.org/2000/svg">
<circle cx="100" cy="100" r="84" fill="black"/>
<path d="M103.041 39.0758C93.8989 38.6195 84.7715 40.2264 76.3351 43.7774C67.8987 47.3285 60.3696 52.7325 54.3058 59.5891C48.242 66.4457 43.7989 74.579 41.306 83.3862C38.813 92.1935 38.3341 101.449 39.9046 110.466C41.4751 119.484 45.0549 128.032 50.3785 135.478C55.7022 142.924 62.6332 149.077 70.658 153.479C78.6828 157.882 87.5955 160.423 96.7357 160.913C105.876 161.402 115.009 159.829 123.458 156.309L122.306 153.543C114.272 156.89 105.587 158.386 96.8961 157.92C88.205 157.454 79.7301 155.039 72.0995 150.852C64.469 146.665 57.8784 140.815 52.8163 133.735C47.7542 126.655 44.3503 118.527 42.857 109.952C41.3636 101.378 41.8191 92.577 44.1895 84.2024C46.56 75.8279 50.7848 68.0941 56.5507 61.5744C62.3166 55.0547 69.4758 49.9161 77.4977 46.5396C85.5196 43.163 94.1986 41.6351 102.891 42.0689L103.041 39.0758Z" fill="#C4C4C4"/>
<path d="M166.5 72.3996C162.108 61.818 155.254 52.4372 146.508 45.0366C137.763 37.6361 127.377 32.4295 116.214 29.8494L115.728 31.9545C126.555 34.4571 136.629 39.5075 145.113 46.686C153.596 53.8645 160.244 62.9638 164.504 73.2279L166.5 72.3996Z" fill="#C4C4C4"/>
<path d="M97.5303 141.927C103.036 142.252 108.552 141.488 113.763 139.681C118.974 137.874 123.778 135.057 127.901 131.393C132.023 127.729 135.384 123.289 137.791 118.327C140.197 113.364 141.603 107.976 141.927 102.47C142.252 96.9638 141.488 91.4478 139.681 86.2368C137.874 81.0259 135.057 76.2219 131.393 72.0993C127.73 67.9766 123.289 64.616 118.327 62.2093C113.364 59.8026 107.976 58.397 102.47 58.0727L102.197 62.7107C107.093 62.9991 111.886 64.2493 116.299 66.3897C120.713 68.5302 124.662 71.519 127.921 75.1856C131.179 78.8522 133.684 83.1248 135.291 87.7593C136.899 92.3939 137.578 97.2996 137.289 102.197C137.001 107.093 135.751 111.886 133.61 116.299C131.47 120.713 128.481 124.662 124.814 127.921C121.148 131.179 116.875 133.684 112.241 135.291C107.606 136.899 102.7 137.578 97.8035 137.289L97.5303 141.927Z" fill="#C4C4C4"/>
<circle cx="100" cy="100" r="20" fill="#CD1648"/>
<circle cx="100" cy="100" r="5" fill="#FBFBFB"/>
</svg>
